# Blender v2.78 (sub 0) OBJ File: ''
# www.blender.org
o CarMesh.001
v 0.000000 0.000000 0.000000
v 0.000000 -1.000000 1.000000
v 0.000000 -1.000000 -1.000000
v -1.000000 0.000000 0.000000
v -1.000000 -1.000000 -1.000000
v -1.000000 -1.000000 1.000000
vt 0.5035 0.7465
vt 0.5035 0.5066
vt 0.7434 0.7465
vt 0.7450 0.5050
vt 0.7450 0.7450
vt 0.5050 0.5050
vt 0.4931 0.7431
vt 0.2569 0.7431
vt 0.4931 0.5069
vt 0.2569 0.5069
vt 0.2433 0.7434
vt 0.0067 0.5067
vt 0.2433 0.5067
vt 0.0067 0.7434
vt 0.4931 0.5069
vt 0.4931 0.7431
vt 0.2570 0.7431
vt 0.2570 0.5069
vn 1.0000 0.0000 -0.0000
vn -1.0000 0.0000 0.0000
vn -0.0000 0.7071 -0.7071
vn -0.0000 -1.0000 -0.0000
vn 0.0000 0.7071 0.7071
s off
f 1/1/1 2/2/1 3/3/1
f 4/4/2 5/5/2 6/6/2
f 1/7/3 3/8/3 4/9/3
f 3/8/3 5/10/3 4/9/3
f 3/11/4 6/12/4 5/13/4
f 3/11/4 2/14/4 6/12/4
f 1/15/5 4/16/5 6/17/5
f 1/15/5 6/17/5 2/18/5
