o Suspension.001
v 0.004358 0.300000 0.049810
v 0.004358 0.000000 0.049810
v -0.032139 0.300000 0.038302
v -0.032139 -0.000000 0.038302
v -0.049810 0.300000 0.004358
v -0.049810 -0.000000 0.004358
v -0.038302 0.300000 -0.032139
v -0.038302 -0.000000 -0.032139
v -0.004358 0.300000 -0.049810
v -0.004358 -0.000000 -0.049810
v 0.032139 0.300000 -0.038302
v 0.032139 0.000000 -0.038302
v 0.049810 0.300000 -0.004358
v 0.049810 0.000000 -0.004358
v 0.038302 0.300000 0.032139
v 0.038302 0.000000 0.032139
vt 0.1250 0.5036
vt 0.2111 0.5036
vt 0.2111 0.7464
vt 0.1250 0.7464
vt 0.2468 0.5036
vt 0.2468 0.7464
vt 0.2111 0.5036
vt 0.2111 0.7464
vt 0.1250 0.5036
vt 0.1250 0.7464
vt 0.0389 0.5036
vt 0.0389 0.7464
vt 0.0032 0.5036
vt 0.0032 0.7464
vt 0.2138 0.7093
vt 0.2474 0.6218
vt 0.2093 0.5362
vt 0.1218 0.5026
vt 0.0362 0.5407
vt 0.0026 0.6282
vt 0.0407 0.7138
vt 0.1282 0.7474
vt 0.0389 0.5036
vt 0.0389 0.7464
vt 0.1218 0.5026
vt 0.0362 0.5407
vt 0.0026 0.6282
vt 0.0407 0.7138
vt 0.1282 0.7474
vt 0.2138 0.7093
vt 0.2474 0.6218
vt 0.2093 0.5362
vn -0.3007 0.0000 0.9537
vn -0.8870 -0.0000 0.4617
vn -0.9537 -0.0000 -0.3007
vn -0.4617 -0.0000 -0.8870
vn 0.3007 -0.0000 -0.9537
vn 0.8870 0.0000 -0.4617
vn 0.0000 -1.0000 0.0000
vn 0.9537 0.0000 0.3007
vn 0.4617 0.0000 0.8870
vn 0.0000 1.0000 -0.0000
usemtl None
s 1
f 1/1/1 3/2/1 4/3/1 2/4/1
f 3/2/2 5/5/2 6/6/2 4/3/2
f 5/5/3 7/7/3 8/8/3 6/6/3
f 7/7/4 9/9/4 10/10/4 8/8/4
f 9/9/5 11/11/5 12/12/5 10/10/5
f 11/11/6 13/13/6 14/14/6 12/12/6
f 4/15/7 6/16/7 8/17/7 10/18/7 12/19/7 14/20/7 16/21/7 2/22/7
f 13/13/8 15/23/8 16/24/8 14/14/8
f 15/23/9 1/1/9 2/4/9 16/24/9
f 1/25/10 15/26/10 13/27/10 11/28/10 9/29/10 7/30/10 5/31/10 3/32/10
