# Blender v2.78 (sub 0) OBJ File: ''
# www.blender.org
o Wheel
v 0.000000 0.000000 -0.500000
v -0.500000 0.000000 -0.500000
v -0.500000 0.191342 -0.461940
v 0.000000 0.191342 -0.461940
v -0.500000 0.353554 -0.353553
v 0.000000 0.353553 -0.353553
v -0.500000 0.461940 -0.191342
v 0.000000 0.461940 -0.191342
v -0.500000 0.500000 0.000000
v 0.000000 0.500000 0.000000
v -0.500000 0.461940 0.191342
v 0.000000 0.461940 0.191342
v -0.500000 0.353553 0.353553
v 0.000000 0.353553 0.353553
v -0.500000 0.191342 0.461940
v 0.000000 0.191342 0.461940
v -0.500000 -0.000000 0.500000
v 0.000000 -0.000000 0.500000
v -0.500000 -0.191342 0.461940
v 0.000000 -0.191342 0.461940
v -0.500000 -0.353553 0.353553
v 0.000000 -0.353553 0.353553
v -0.500000 -0.461940 0.191342
v 0.000000 -0.461940 0.191342
v -0.500000 -0.500000 -0.000000
v 0.000000 -0.500000 -0.000000
v -0.500000 -0.461940 -0.191342
v 0.000000 -0.461940 -0.191342
v -0.500000 -0.353553 -0.353554
v 0.000000 -0.353553 -0.353554
v -0.500000 -0.191341 -0.461940
v 0.000000 -0.191341 -0.461940
vt 0.5024 0.9364
vt 0.7476 0.9364
vt 0.7476 0.9977
vt 0.5024 0.9977
vt 0.5024 0.7523
vt 0.7476 0.7523
vt 0.7476 0.8136
vt 0.5024 0.8136
vt 0.7476 0.8750
vt 0.5024 0.8750
vt 0.7476 0.9364
vt 0.5024 0.9364
vt 0.7476 0.9977
vt 0.5024 0.9977
vt 0.5024 0.7523
vt 0.7476 0.7523
vt 0.7476 0.8136
vt 0.5024 0.8136
vt 0.7476 0.8750
vt 0.5024 0.8750
vt 0.7476 0.9364
vt 0.5024 0.9364
vt 0.7476 0.9977
vt 0.5024 0.9977
vt 0.5024 0.7523
vt 0.7476 0.7523
vt 0.7476 0.8136
vt 0.5024 0.8136
vt 0.7476 0.8750
vt 0.5024 0.8750
vt 0.7476 0.9364
vt 0.5024 0.9364
vt 0.7476 0.9977
vt 0.5024 0.9977
vt 0.5024 0.7523
vt 0.7476 0.7523
vt 0.7476 0.8136
vt 0.5024 0.8136
vt 0.1250 0.9978
vt 0.1720 0.9885
vt 0.2119 0.9619
vt 0.2385 0.9220
vt 0.2478 0.8750
vt 0.2385 0.8280
vt 0.2119 0.7881
vt 0.1720 0.7615
vt 0.1250 0.7522
vt 0.0780 0.7615
vt 0.0381 0.7881
vt 0.0115 0.8280
vt 0.0022 0.8750
vt 0.0115 0.9220
vt 0.0381 0.9619
vt 0.0780 0.9885
vt 0.7476 0.8750
vt 0.5024 0.8750
vt 0.3750 0.9978
vt 0.4220 0.9885
vt 0.4619 0.9619
vt 0.4885 0.9220
vt 0.4978 0.8750
vt 0.4885 0.8280
vt 0.4619 0.7881
vt 0.4220 0.7615
vt 0.3750 0.7522
vt 0.3280 0.7615
vt 0.2881 0.7881
vt 0.2615 0.8280
vt 0.2522 0.8750
vt 0.2615 0.9220
vt 0.2881 0.9619
vt 0.3280 0.9885
vn 0.0000 0.1951 -0.9808
vn 0.0000 0.5556 -0.8315
vn 0.0000 0.8315 -0.5556
vn 0.0000 0.9808 -0.1951
vn 0.0000 0.9808 0.1951
vn 0.0000 0.8315 0.5556
vn 0.0000 0.5556 0.8315
vn 0.0000 0.1951 0.9808
vn 0.0000 -0.1951 0.9808
vn 0.0000 -0.5556 0.8315
vn 0.0000 -0.8315 0.5556
vn 0.0000 -0.9808 0.1951
vn 0.0000 -0.9808 -0.1951
vn 0.0000 -0.8315 -0.5556
vn -1.0000 0.0000 0.0000
vn 0.0000 -0.5556 -0.8315
vn 0.0000 -0.1951 -0.9808
vn 1.0000 0.0000 0.0000
s 1
f 1/1/1 2/2/1 3/3/1 4/4/1
f 4/5/2 3/6/2 5/7/2 6/8/2
f 6/8/3 5/7/3 7/9/3 8/10/3
f 8/10/4 7/9/4 9/11/4 10/12/4
f 10/12/5 9/11/5 11/13/5 12/14/5
f 12/15/6 11/16/6 13/17/6 14/18/6
f 14/18/7 13/17/7 15/19/7 16/20/7
f 16/20/8 15/19/8 17/21/8 18/22/8
f 18/22/9 17/21/9 19/23/9 20/24/9
f 20/25/10 19/26/10 21/27/10 22/28/10
f 22/28/11 21/27/11 23/29/11 24/30/11
f 24/30/12 23/29/12 25/31/12 26/32/12
f 26/32/13 25/31/13 27/33/13 28/34/13
f 28/35/14 27/36/14 29/37/14 30/38/14
f 3/39/15 2/40/15 31/41/15 29/42/15 27/43/15 25/44/15 23/45/15 21/46/15 19/47/15 17/48/15 15/49/15 13/50/15 11/51/15 9/52/15 7/53/15 5/54/15
f 30/38/16 29/37/16 31/55/16 32/56/16
f 32/56/17 31/55/17 2/2/17 1/1/17
f 1/57/18 4/58/18 6/59/18 8/60/18 10/61/18 12/62/18 14/63/18 16/64/18 18/65/18 20/66/18 22/67/18 24/68/18 26/69/18 28/70/18 30/71/18 32/72/18
